<svg width="80" height="41" viewBox="0 0 80 41" fill="none" xmlns="http://www.w3.org/2000/svg">
<path d="M79.3057 27.7249L71.5237 19.9531L79.3096 12.1298L80.0002 11.4359L79.3096 10.742L74.0967 5.50397L73.4061 4.81006L72.7155 5.50397L64.9296 13.3273L57.1949 5.50793L56.5044 4.81006L55.8098 5.50397L50.5968 10.742L49.9102 11.4359L50.5929 12.1298L58.3354 19.9531L50.5968 27.7288L49.9062 28.4227L50.5968 29.1166L55.8098 34.3546L56.5004 35.0485L57.191 34.3546L64.9296 26.5789L72.7194 34.3586L73.4061 35.0485L74.0967 34.3546L79.3096 29.1166L80.0002 28.4188L79.3057 27.7249Z" fill="#F8F8F8"/>
<path d="M36.0977 4.34981V41H45.7738V0L36.0977 4.34981Z" fill="#F8F8F8"/>
<path d="M20.5244 26.4157C20.3586 29.5403 17.7857 32.0265 14.6326 32.0265C11.4796 32.0265 8.73302 29.3737 8.73302 26.0985C8.73302 22.8233 11.3731 20.1706 14.6326 20.1706C17.8922 20.1706 20.3586 22.6567 20.5244 25.7813V26.4157ZM20.5244 11.356V12.6407C18.7209 11.8437 16.7281 11.3956 14.6326 11.3956C6.55075 11.3996 0 17.9778 0 26.0985C0 34.2192 6.55075 40.8014 14.6326 40.8014C16.7281 40.8014 18.7209 40.3533 20.5244 39.5563V40.9997H30.2005V11.3599H20.5244V11.356Z" fill="#F8F8F8"/>
</svg>
